<svg width="24" height="24" viewBox="0 0 24 24" fill="none" xmlns="http://www.w3.org/2000/svg">
<path d="M12.0001 0C5.37239 0.00084375 0.000421878 5.37258 0 12C0.000421878 18.6278 5.37239 23.9996 12.0001 24C18.6278 23.9996 23.9995 18.6278 24 12C23.9996 5.37258 18.6278 0.00084375 12.0001 0ZM15.0396 1.60622C16.8071 2.12212 18.3886 3.07388 19.6571 4.34283C20.926 5.61173 21.8778 7.19283 22.3937 8.9603L16.8001 10.0684C16.273 8.76483 15.2351 7.72687 13.9317 7.20023L15.0396 1.60622ZM4.34267 4.34283C5.61159 3.07392 7.19288 2.12212 8.96037 1.60622L10.0683 7.20023C8.76485 7.72683 7.72675 8.76483 7.2001 10.0684L1.60604 8.96034C2.12219 7.19283 3.07395 5.61178 4.34267 4.34283ZM8.96037 22.3942C7.19288 21.8779 5.61159 20.9261 4.34267 19.6576C3.07395 18.3882 2.12219 16.8072 1.60604 15.0397L7.2001 13.932C7.72675 15.2351 8.7649 16.2735 10.0683 16.8001L8.96037 22.3942ZM13.3308 15.7737C12.9131 15.918 12.4683 16.0001 12.0001 16.0001C11.5316 16.0001 11.0869 15.9181 10.6691 15.7737C10.5444 15.7309 10.4233 15.6801 10.3025 15.6253C9.88086 15.4266 9.49859 15.1573 9.17074 14.8294C8.84309 14.5015 8.57749 14.1188 8.37874 13.6973C8.31996 13.5765 8.26924 13.4516 8.23028 13.327C8.08206 12.9134 7.99994 12.4685 7.99994 12C7.99994 11.5319 8.08206 11.0832 8.23028 10.6692C8.26924 10.5442 8.31996 10.4234 8.37874 10.3026C8.57749 9.88111 8.84309 9.49847 9.17074 9.171C9.49859 8.84316 9.88086 8.57344 10.3025 8.37469C10.4233 8.32027 10.5444 8.26955 10.6691 8.22666C11.0829 8.08195 11.5316 8.00025 12.0001 8.00025C12.4684 8.00025 12.9171 8.08191 13.3308 8.22666C13.4556 8.26955 13.5767 8.32027 13.6977 8.37469C14.1191 8.57344 14.5014 8.84316 14.8293 9.171C15.157 9.49847 15.4225 9.88111 15.6213 10.3026C15.68 10.4234 15.7308 10.5442 15.7698 10.6692C15.918 11.0832 16.0001 11.5319 16.0001 12C16.0001 12.4684 15.918 12.9134 15.7698 13.327C15.7308 13.4515 15.68 13.5765 15.6213 13.6973C15.4226 14.1188 15.157 14.5015 14.8293 14.8294C14.5015 15.1572 14.1191 15.4265 13.6977 15.6253C13.5767 15.6801 13.4556 15.7309 13.3308 15.7737ZM19.6571 19.6576C18.3886 20.9261 16.8071 21.8779 15.0396 22.3942L13.9317 16.8002C15.2351 16.2735 16.2731 15.2352 16.8001 13.932L22.3938 15.0397C21.8778 16.8072 20.9261 18.3882 19.6571 19.6576Z" fill="black"/>
</svg>
